<svg width="45" height="45" viewBox="0 0 45 45" fill="none" xmlns="http://www.w3.org/2000/svg">
<path d="M22.5001 21.9008C23.9043 21.9008 25.2771 21.4844 26.4446 20.7042C27.6122 19.9241 28.5223 18.8152 29.0596 17.5178C29.597 16.2205 29.7376 14.7929 29.4637 13.4156C29.1897 12.0384 28.5135 10.7733 27.5205 9.78033C26.5276 8.78737 25.2625 8.11116 23.8852 7.83721C22.508 7.56325 21.0804 7.70386 19.783 8.24124C18.4857 8.77862 17.3768 9.68865 16.5967 10.8562C15.8165 12.0238 15.4001 13.3965 15.4001 14.8008C15.4001 16.6838 16.1481 18.4897 17.4796 19.8212C18.8111 21.1528 20.6171 21.9008 22.5001 21.9008ZM22.5001 9.30078C23.5879 9.30078 24.6513 9.62335 25.5557 10.2277C26.4602 10.832 27.1651 11.691 27.5814 12.696C27.9977 13.701 28.1066 14.8069 27.8944 15.8738C27.6822 16.9407 27.1584 17.9207 26.3892 18.6899C25.62 19.4591 24.64 19.9829 23.5731 20.1951C22.5062 20.4073 21.4003 20.2984 20.3953 19.8821C19.3903 19.4658 18.5314 18.7609 17.927 17.8564C17.3227 16.952 17.0001 15.8886 17.0001 14.8008C17.0001 13.3421 17.5796 11.9431 18.611 10.9117C19.6425 9.88025 21.0414 9.30078 22.5001 9.30078Z" fill="white" stroke="white" stroke-width="0.2"/>
<path d="M7.6999 36.5013C7.69994 36.7134 7.78422 36.9169 7.93422 37.0669C8.08425 37.2169 8.28773 37.3012 8.4999 37.3012H36.4999V37.3016L36.509 37.3008C36.7285 37.2808 36.9322 37.1782 37.0791 37.0138C37.2256 36.8496 37.3045 36.636 37.2999 36.416C37.2922 32.8871 35.8869 29.5049 33.3916 27.0095C30.896 24.5139 27.5134 23.1086 23.9841 23.1012H23.9839L21.0159 23.1012L21.0156 23.1012C19.2614 23.1067 17.5255 23.4577 15.9069 24.1342C14.2884 24.8106 12.8189 25.7992 11.5824 27.0435C10.346 28.2879 9.36667 29.7636 8.70051 31.3864C8.03436 33.0091 7.69436 34.7472 7.6999 36.5013ZM7.6999 36.5013C7.6999 36.5013 7.6999 36.5012 7.6999 36.5012H7.7999L7.6999 36.5015C7.6999 36.5014 7.6999 36.5014 7.6999 36.5013ZM23.9699 24.7012H23.9699C26.9747 24.7003 29.8655 25.8511 32.0475 27.9169C34.2039 29.9585 35.5059 32.7402 35.6938 35.7012H9.30597C9.49359 32.745 10.7917 29.9673 12.9422 27.9265C15.1183 25.8614 18.0021 24.7074 21.002 24.7012H23.9699Z" fill="white" stroke="white" stroke-width="0.2"/>
</svg>
