<svg width="33" height="37" viewBox="0 0 33 37" fill="none" xmlns="http://www.w3.org/2000/svg">
<path d="M29.1634 9.75877C29.1356 9.5465 29.0311 9.35174 28.8696 9.21123C28.7081 9.07071 28.5008 8.99414 28.2868 8.99595H23.4566V7.24236C23.4566 5.32156 22.6938 3.47944 21.3359 2.12124C19.9779 0.763032 18.1362 0 16.2158 0C14.2954 0 12.4537 0.763032 11.0958 2.12124C9.73787 3.47944 8.975 5.32156 8.975 7.24236V8.99595H4.1361C3.92207 8.99414 3.71477 9.07071 3.55329 9.21123C3.39181 9.35174 3.2873 9.5465 3.25949 9.75877L0.00725605 34.4319C-0.00929429 34.5597 0.00254988 34.6897 0.0419452 34.8124C0.0813404 34.9352 0.147318 35.0477 0.235176 35.1421C0.603353 35.5366 1.00659 35.94 1.4449 36.3345C1.60567 36.4807 1.81497 36.5619 2.03223 36.5625H30.3994C30.6167 36.5619 30.826 36.4807 30.9867 36.3345C31.4163 35.94 31.8634 35.5366 32.1965 35.1421C32.2843 35.0477 32.3503 34.9352 32.3897 34.8124C32.4291 34.6897 32.4409 34.5597 32.4244 34.4319L29.1634 9.75877ZM10.7545 7.22482C10.7545 5.76911 11.3327 4.37302 12.3618 3.34368C13.3909 2.31434 14.7867 1.73606 16.2421 1.73606C17.6975 1.73606 19.0933 2.31434 20.1224 3.34368C21.1516 4.37302 21.7297 5.76911 21.7297 7.22482V8.97842H10.7282L10.7545 7.22482ZM30.04 34.8089H2.37411L1.79555 34.2477L4.89875 10.7495H27.5241L30.6273 34.2477L30.04 34.8089Z" fill="#141414"/>
</svg>
