<svg width="29" height="29" viewBox="0 0 29 29" fill="none" xmlns="http://www.w3.org/2000/svg">
<path d="M28.0375 26.4017L20.1452 18.5093C21.6739 16.6209 22.5944 14.2213 22.5944 11.6079C22.5944 5.55067 17.6659 0.62207 11.6087 0.62207C5.55154 0.62207 0.623047 5.55062 0.623047 11.6078C0.623047 17.6651 5.55159 22.5937 11.6088 22.5937C14.2222 22.5937 16.6217 21.6732 18.5101 20.1444L26.4024 28.0369C26.6279 28.2624 26.9239 28.3757 27.22 28.3757C27.5161 28.3757 27.8121 28.2624 28.0376 28.0369C28.4897 27.5847 28.4897 26.8539 28.0375 26.4017ZM11.6088 20.2809C6.82592 20.2809 2.93584 16.3907 2.93584 11.6078C2.93584 6.82495 6.82592 2.93484 11.6088 2.93484C16.3916 2.93484 20.2817 6.82495 20.2817 11.6078C20.2817 16.3907 16.3915 20.2809 11.6088 20.2809Z" fill="#141414" stroke="white" stroke-width="0.1"/>
</svg>
